<svg xmlns="http://www.w3.org/2000/svg" viewBox="0 0 144.2 138.71"><defs><style>.cls-1{fill:#7f1518;}.cls-1,.cls-3{fill-rule:evenodd;}.cls-2,.cls-4{fill:none;stroke-miterlimit:8;}.cls-2{stroke:#7f1518;stroke-width:6.03px;}.cls-3{fill:#fff;}.cls-4{stroke:#fff;stroke-width:2.01px;}</style></defs><g id="Layer_2" data-name="Layer 2"><g id="Layer_1-2" data-name="Layer 1"><path class="cls-1" d="M3,25.13A22.23,22.23,0,0,1,25.37,3h93.46a22.23,22.23,0,0,1,22.35,22.11v88.45a22.23,22.23,0,0,1-22.35,22.12H25.37A22.23,22.23,0,0,1,3,113.58Z"/><path class="cls-2" d="M3,25.13A22.23,22.23,0,0,1,25.37,3h93.46a22.23,22.23,0,0,1,22.35,22.11v88.45a22.23,22.23,0,0,1-22.35,22.12H25.37A22.23,22.23,0,0,1,3,113.58Z"/><path class="cls-3" d="M78.2,71.37a6.06,6.06,0,0,1,6.09-6h24.38a6.06,6.06,0,0,1,6.1,6V99.51a6.06,6.06,0,0,1-6.1,6H84.29a6.06,6.06,0,0,1-6.09-6Z"/><path class="cls-4" d="M78.2,71.37a6.06,6.06,0,0,1,6.09-6h24.38a6.06,6.06,0,0,1,6.1,6V99.51a6.06,6.06,0,0,1-6.1,6H84.29a6.06,6.06,0,0,1-6.09-6Z"/><polygon class="cls-3" points="69.05 68.35 97.5 42.22 125.94 68.35 69.05 68.35 69.05 68.35"/><polygon class="cls-4" points="69.05 68.35 97.5 42.22 125.94 68.35 69.05 68.35 69.05 68.35"/><path class="cls-3" d="M43.65,82.93a3.54,3.54,0,0,1,3.56-3.52H61.43A3.53,3.53,0,0,1,65,82.93V99a3.54,3.54,0,0,1-3.56,3.52H47.21A3.55,3.55,0,0,1,43.65,99Z"/><path class="cls-4" d="M43.65,82.93a3.54,3.54,0,0,1,3.56-3.52H61.43A3.53,3.53,0,0,1,65,82.93V99a3.54,3.54,0,0,1-3.56,3.52H47.21A3.55,3.55,0,0,1,43.65,99Z"/><path class="cls-3" d="M19.27,91.64a2.19,2.19,0,0,1,2.2-2.18h9.82a2.18,2.18,0,0,1,2.2,2.18v8.71a2.19,2.19,0,0,1-2.2,2.18H21.47a2.2,2.2,0,0,1-2.2-2.18Z"/><path class="cls-4" d="M19.27,91.64a2.19,2.19,0,0,1,2.2-2.18h9.82a2.18,2.18,0,0,1,2.2,2.18v8.71a2.19,2.19,0,0,1-2.2,2.18H21.47a2.2,2.2,0,0,1-2.2-2.18Z"/></g></g></svg>