<svg xmlns="http://www.w3.org/2000/svg" viewBox="0 0 546.93 145"><defs><style>.cls-1,.cls-6{fill:#7f1518;}.cls-1,.cls-3{fill-rule:evenodd;}.cls-2,.cls-4{fill:none;stroke-miterlimit:8;}.cls-2{stroke:#7f1518;stroke-width:6.03px;}.cls-3{fill:#fff;}.cls-4{stroke:#fff;stroke-width:2.01px;}.cls-5{fill:#231f20;}</style></defs><g id="Layer_2" data-name="Layer 2"><g id="Layer_1-2" data-name="Layer 1"><path class="cls-1" d="M3,25.13A22.23,22.23,0,0,1,25.37,3h93.46a22.23,22.23,0,0,1,22.35,22.11v88.45a22.23,22.23,0,0,1-22.35,22.12H25.37A22.23,22.23,0,0,1,3,113.58Z"/><path class="cls-2" d="M3,25.13A22.23,22.23,0,0,1,25.37,3h93.46a22.23,22.23,0,0,1,22.35,22.11v88.45a22.23,22.23,0,0,1-22.35,22.12H25.37A22.23,22.23,0,0,1,3,113.58Z"/><path class="cls-3" d="M78.2,71.37a6.06,6.06,0,0,1,6.09-6h24.38a6.06,6.06,0,0,1,6.1,6V99.51a6.06,6.06,0,0,1-6.1,6H84.29a6.06,6.06,0,0,1-6.09-6Z"/><path class="cls-4" d="M78.2,71.37a6.06,6.06,0,0,1,6.09-6h24.38a6.06,6.06,0,0,1,6.1,6V99.51a6.06,6.06,0,0,1-6.1,6H84.29a6.06,6.06,0,0,1-6.09-6Z"/><polygon class="cls-3" points="69.05 68.35 97.5 42.22 125.94 68.35 69.05 68.35 69.05 68.35"/><polygon class="cls-4" points="69.05 68.35 97.5 42.22 125.94 68.35 69.05 68.35 69.05 68.35"/><path class="cls-3" d="M43.65,82.93a3.54,3.54,0,0,1,3.56-3.52H61.43A3.53,3.53,0,0,1,65,82.93V99a3.54,3.54,0,0,1-3.56,3.52H47.21A3.55,3.55,0,0,1,43.65,99Z"/><path class="cls-4" d="M43.65,82.93a3.54,3.54,0,0,1,3.56-3.52H61.43A3.53,3.53,0,0,1,65,82.93V99a3.54,3.54,0,0,1-3.56,3.52H47.21A3.55,3.55,0,0,1,43.65,99Z"/><path class="cls-3" d="M19.27,91.64a2.19,2.19,0,0,1,2.2-2.18h9.82a2.18,2.18,0,0,1,2.2,2.18v8.71a2.19,2.19,0,0,1-2.2,2.18H21.47a2.2,2.2,0,0,1-2.2-2.18Z"/><path class="cls-4" d="M19.27,91.64a2.19,2.19,0,0,1,2.2-2.18h9.82a2.18,2.18,0,0,1,2.2,2.18v8.71a2.19,2.19,0,0,1-2.2,2.18H21.47a2.2,2.2,0,0,1-2.2-2.18Z"/><path class="cls-5" d="M210.29,101.6h12v19q-7.95,8.86-22,8.86a27.17,27.17,0,0,1-19.75-7.79q-8-7.78-8-19.67a26.6,26.6,0,0,1,8.13-19.83,27.09,27.09,0,0,1,19.64-8,29,29,0,0,1,20,7.57l-6.19,8.94a23.55,23.55,0,0,0-6.61-4.32A17.71,17.71,0,0,0,201,85.17a15.67,15.67,0,0,0-11.46,4.63q-4.66,4.62-4.66,12.18t4.47,12.11A14.42,14.42,0,0,0,200,118.64a20.45,20.45,0,0,0,10.31-2.37Z"/><path class="cls-5" d="M266.68,128.8H255.9v-5a13.49,13.49,0,0,1-11,5.57,16.34,16.34,0,0,1-11-3.78,12.59,12.59,0,0,1-4.43-10.08q0-6.31,4.59-9.44T246.66,103h8.56v-.23q0-6.57-7-6.57a18.76,18.76,0,0,0-6.3,1.18,20.49,20.49,0,0,0-5.62,2.94l-5.11-7.41A30.65,30.65,0,0,1,249.72,87q7.49,0,12.22,3.74t4.74,11.84Zm-11.54-15.66v-2H248q-6.89,0-6.88,4.28a3.94,3.94,0,0,0,1.64,3.4,8,8,0,0,0,4.7,1.19,8.37,8.37,0,0,0,5.39-1.88A6.08,6.08,0,0,0,255.14,113.14Z"/><path class="cls-5" d="M290.36,96v18.41a5.27,5.27,0,0,0,1.23,3.71,3.79,3.79,0,0,0,2.9,1.33,6.59,6.59,0,0,0,5.42-2.9l4.28,8c-3.56,3.27-7.32,4.89-11.27,4.89a14,14,0,0,1-10-3.89q-4.08-3.9-4.08-10.62V96H274V87.7h4.82V75.4h11.53V87.7h9.93V96Z"/><path class="cls-5" d="M345.91,122.84a23,23,0,0,1-16.31,6.57q-9.36,0-15.47-5.77T308,108.17q0-9.7,6.23-15.43A21,21,0,0,1,329,87a21.28,21.28,0,0,1,14.4,5.12q5.92,5.12,5.92,14.06v6.11H319.32a8.18,8.18,0,0,0,3.51,5.5,11.24,11.24,0,0,0,6.73,2.14,13.19,13.19,0,0,0,9.93-4Zm-11-24.37a8.72,8.72,0,0,0-5.77-2,10.3,10.3,0,0,0-6.23,2.07,7.86,7.86,0,0,0-3.28,5.57h18A8.18,8.18,0,0,0,334.91,98.47Z"/><path class="cls-5" d="M378.54,128.8H366.69l-14-41.1h11.84l8,24.83,8-24.83h11.08l8,24.83,8-24.83h11.92l-14,41.1H393.74l-7.56-22.39Z"/><path class="cls-5" d="M460.52,128.8H449.74v-5a13.47,13.47,0,0,1-11,5.57,16.33,16.33,0,0,1-11-3.78,12.59,12.59,0,0,1-4.43-10.08q0-6.31,4.59-9.44T440.5,103h8.56v-.23q0-6.57-7-6.57a18.8,18.8,0,0,0-6.3,1.18,20.64,20.64,0,0,0-5.62,2.94l-5.11-7.41A30.65,30.65,0,0,1,443.56,87q7.49,0,12.22,3.74t4.74,11.84ZM449,113.14v-2H441.8q-6.89,0-6.88,4.28a3.94,3.94,0,0,0,1.64,3.4,8,8,0,0,0,4.7,1.19,8.35,8.35,0,0,0,5.39-1.88A6.08,6.08,0,0,0,449,113.14Z"/><path class="cls-5" d="M477.56,145q-6,0-11.39-4.89l5.2-8.48a8.59,8.59,0,0,0,6,2.83,3.34,3.34,0,0,0,2.75-1.57,5.54,5.54,0,0,0,1.14-3.32q0-1.75-15.89-41.87h12.23l10,25.59,10-25.59H509.8l-19.1,48.44a13.67,13.67,0,0,1-5.24,6.53A14.1,14.1,0,0,1,477.56,145Z"/><path class="cls-6" d="M223.43,25.25,209,54.44h-7.11L187.52,25.25V58.87H175.6V5.46h16.12L205.47,34.8,219.31,5.46h16V58.87H223.43Z"/><path class="cls-6" d="M273.86,39.92V17.76H285.4V58.87H273.86V53.45q-4.28,6-11,6a16.08,16.08,0,0,1-11.35-4.24c-3.05-2.83-4.58-7-4.58-12.57V17.76h11.53V40.15q0,9.48,7,9.48a8.2,8.2,0,0,0,6-2.49Q273.86,44.67,273.86,39.92Z"/><path class="cls-6" d="M307.7,58.87H296.24V2.18H307.7V31.29l12.76-13.6H334.9L319.24,34.35l16.27,24.52H321.92L311.45,43.13,307.7,47Z"/><path class="cls-6" d="M375.55,58.87H364.78v-5a13.5,13.5,0,0,1-11,5.58,16.31,16.31,0,0,1-11-3.78,12.6,12.6,0,0,1-4.43-10.09q0-6.3,4.58-9.43t12.53-3.13h8.56v-.23q0-6.57-6.95-6.57a18.71,18.71,0,0,0-6.3,1.18,20.49,20.49,0,0,0-5.62,2.94L340.1,23a30.67,30.67,0,0,1,18.49-5.88q7.49,0,12.23,3.74t4.73,11.84ZM364,43.21v-2h-7.19q-6.87,0-6.87,4.28a3.94,3.94,0,0,0,1.64,3.4,7.94,7.94,0,0,0,4.7,1.18,8.38,8.38,0,0,0,5.39-1.87A6.08,6.08,0,0,0,364,43.21Z"/><path class="cls-6" d="M423.77,36.71V58.87H412.23V36.41c0-3.26-.5-5.66-1.49-7.18a5.33,5.33,0,0,0-4.82-2.3A8.21,8.21,0,0,0,400,29.42q-2.57,2.47-2.56,7.29V58.87H386V17.76h11.46v4.67q4.74-5.35,10.85-5.35a11.78,11.78,0,0,1,7.07,2.29A15,15,0,0,1,420.17,25a16.18,16.18,0,0,1,6.38-5.81,17.44,17.44,0,0,1,8.07-2.06q7.25,0,11.68,4.31t4.43,12.5v25H439.2V36.41q0-9.48-6.95-9.48a8.19,8.19,0,0,0-6,2.49C424.6,31.07,423.77,33.5,423.77,36.71Z"/><path class="cls-6" d="M484.81,17.08a17.54,17.54,0,0,1,13.07,5.84q5.56,5.85,5.57,15a21.72,21.72,0,0,1-5.73,15.35q-5.73,6.2-13,6.19a14.89,14.89,0,0,1-12.12-6v5.42H461.12V2.18h11.46V22.35A15.68,15.68,0,0,1,484.81,17.08ZM472.43,38.36a11.91,11.91,0,0,0,2.79,8.17A8.66,8.66,0,0,0,482,49.7a9.26,9.26,0,0,0,7-3.17,11.42,11.42,0,0,0,3-8.14A12.3,12.3,0,0,0,489,30.06a8.91,8.91,0,0,0-6.95-3.36A8.6,8.6,0,0,0,475.22,30,12.5,12.5,0,0,0,472.43,38.36Z"/><path class="cls-6" d="M546.93,58.87H536.16v-5a13.51,13.51,0,0,1-11,5.58,16.28,16.28,0,0,1-11-3.78,12.58,12.58,0,0,1-4.44-10.09q0-6.3,4.59-9.43t12.53-3.13h8.56v-.23q0-6.57-7-6.57a18.81,18.81,0,0,0-6.31,1.18,20.49,20.49,0,0,0-5.62,2.94L511.47,23A30.69,30.69,0,0,1,530,17.08q7.5,0,12.23,3.74t4.74,11.84ZM535.39,43.21v-2h-7.18q-6.88,0-6.88,4.28A3.94,3.94,0,0,0,523,48.9a8,8,0,0,0,4.7,1.18,8.34,8.34,0,0,0,5.39-1.87A6.08,6.08,0,0,0,535.39,43.21Z"/></g></g></svg>