<svg xmlns="http://www.w3.org/2000/svg" viewBox="0 0 401.96 110.69"><defs><style>.cls-1,.cls-2{fill:#fff;}.cls-1{fill-rule:evenodd;}</style></defs><g id="Layer_2" data-name="Layer 2"><g id="Layer_1-2" data-name="Layer 1"><path class="cls-1" d="M51.5,47.53a6.19,6.19,0,0,1,6.22-6.16H82.61a6.19,6.19,0,0,1,6.22,6.16V75.85A6.18,6.18,0,0,1,82.61,82H57.72a6.18,6.18,0,0,1-6.22-6.15Z"/><path class="cls-2" d="M82.61,82.74H57.72a6.93,6.93,0,0,1-7-6.89V47.53a6.93,6.93,0,0,1,7-6.9H82.61a6.93,6.93,0,0,1,7,6.9V75.85A6.93,6.93,0,0,1,82.61,82.74ZM57.72,42.11a5.46,5.46,0,0,0-5.48,5.42V75.85a5.45,5.45,0,0,0,5.48,5.41H82.61a5.45,5.45,0,0,0,5.48-5.41V47.53a5.46,5.46,0,0,0-5.48-5.42Z"/><polygon class="cls-1" points="41.79 52.45 69.42 25.86 97.05 52.45 41.79 52.45 41.79 52.45"/><path class="cls-2" d="M98.88,53.19H40L69.42,24.83ZM43.62,51.71H95.21L69.42,26.88Z"/><path class="cls-1" d="M27.6,66.86a2.6,2.6,0,0,1,2.62-2.59H40.67a2.6,2.6,0,0,1,2.61,2.59V78.68a2.59,2.59,0,0,1-2.61,2.58H30.22a2.6,2.6,0,0,1-2.62-2.58Z"/><path class="cls-2" d="M40.67,82H30.22a3.35,3.35,0,0,1-3.36-3.32V66.86a3.35,3.35,0,0,1,3.36-3.33H40.67A3.34,3.34,0,0,1,44,66.86V78.68A3.34,3.34,0,0,1,40.67,82ZM30.22,65a1.87,1.87,0,0,0-1.88,1.85V78.68a1.86,1.86,0,0,0,1.88,1.84H40.67a1.86,1.86,0,0,0,1.87-1.84V66.86A1.86,1.86,0,0,0,40.67,65Z"/><path class="cls-1" d="M9.68,72.64a1.73,1.73,0,0,1,1.75-1.72h7a1.73,1.73,0,0,1,1.75,1.72v6.9a1.73,1.73,0,0,1-1.75,1.72h-7a1.73,1.73,0,0,1-1.75-1.72Z"/><path class="cls-2" d="M18.39,82h-7a2.48,2.48,0,0,1-2.48-2.46v-6.9a2.48,2.48,0,0,1,2.48-2.46h7a2.48,2.48,0,0,1,2.49,2.46v6.9A2.48,2.48,0,0,1,18.39,82Zm-7-10.34a1,1,0,0,0-1,1v6.9a1,1,0,0,0,1,1h7a1,1,0,0,0,1-1v-6.9a1,1,0,0,0-1-1Z"/><path class="cls-2" d="M87.34,102H18.64A18.58,18.58,0,0,1,0,83.48v-65A18.58,18.58,0,0,1,18.64,0h68.7A18.58,18.58,0,0,1,106,18.47v65A18.58,18.58,0,0,1,87.34,102ZM18.64,4.43a14.15,14.15,0,0,0-14.21,14v65a14.15,14.15,0,0,0,14.21,14h68.7a14.15,14.15,0,0,0,14.21-14v-65a14.15,14.15,0,0,0-14.21-14Z"/><path class="cls-2" d="M154.65,78.81h8.81V92.73q-5.84,6.51-16.16,6.51a20,20,0,0,1-14.51-5.72,19.37,19.37,0,0,1-5.87-14.46,19.49,19.49,0,0,1,6-14.56,19.89,19.89,0,0,1,14.42-5.84A21.3,21.3,0,0,1,162,64.22l-4.54,6.56a17.42,17.42,0,0,0-4.86-3.17,13,13,0,0,0-4.8-.87,11.47,11.47,0,0,0-8.42,3.4,12.05,12.05,0,0,0-3.42,9,12.14,12.14,0,0,0,3.28,8.9,10.63,10.63,0,0,0,7.83,3.34,15,15,0,0,0,7.58-1.74Z"/><path class="cls-2" d="M196.07,98.79h-7.91V95.14a9.91,9.91,0,0,1-8.06,4.1,11.93,11.93,0,0,1-8-2.78,9.25,9.25,0,0,1-3.26-7.41,7.86,7.86,0,0,1,3.37-6.93q3.38-2.3,9.21-2.3h6.28v-.17q0-4.83-5.11-4.83a13.85,13.85,0,0,0-4.63.87,15.64,15.64,0,0,0-4.12,2.16L170,72.41a22.5,22.5,0,0,1,13.58-4.32,14.06,14.06,0,0,1,9,2.75q3.48,2.75,3.48,8.7Zm-8.47-11.5V85.83h-5.28c-3.37,0-5,1-5,3.14a2.88,2.88,0,0,0,1.21,2.5,5.82,5.82,0,0,0,3.45.87,6.16,6.16,0,0,0,4-1.38A4.46,4.46,0,0,0,187.6,87.29Z"/><path class="cls-2" d="M213.47,74.66V88.18a3.91,3.91,0,0,0,.9,2.73,2.81,2.81,0,0,0,2.13,1,4.87,4.87,0,0,0,4-2.13l3.14,5.89a12.13,12.13,0,0,1-8.28,3.59A10,10,0,0,1,205,88.58V74.66h-3.54V68.59H205v-9h8.47v9h7.3v6.07Z"/><path class="cls-2" d="M254.28,94.41a16.88,16.88,0,0,1-12,4.83A15.88,15.88,0,0,1,230.93,95q-4.49-4.23-4.49-11.36T231,72.3a15.43,15.43,0,0,1,10.81-4.21,15.61,15.61,0,0,1,10.58,3.76q4.35,3.77,4.35,10.33v4.49h-22a6,6,0,0,0,2.58,4,8.24,8.24,0,0,0,4.94,1.57,9.68,9.68,0,0,0,7.29-3Zm-8.08-17.9A6.41,6.41,0,0,0,242,75.05a7.6,7.6,0,0,0-4.58,1.51,5.85,5.85,0,0,0-2.41,4.1h13.25A6,6,0,0,0,246.2,76.51Z"/><path class="cls-2" d="M278.25,98.79h-8.7l-10.27-30.2H268l5.89,18.25,5.89-18.25h8.14l5.9,18.25,5.89-18.25h8.76l-10.28,30.2h-8.75l-5.56-16.44Z"/><path class="cls-2" d="M338.48,98.79h-7.92V95.14a9.89,9.89,0,0,1-8.05,4.1,12,12,0,0,1-8.06-2.78,9.24,9.24,0,0,1-3.25-7.41,7.85,7.85,0,0,1,3.36-6.93q3.38-2.3,9.21-2.3h6.29v-.17c0-3.22-1.71-4.83-5.11-4.83a13.81,13.81,0,0,0-4.63.87,15.56,15.56,0,0,0-4.13,2.16l-3.76-5.44A22.53,22.53,0,0,1,326,68.09a14.11,14.11,0,0,1,9,2.75q3.48,2.75,3.48,8.7ZM330,87.29V85.83h-5.28c-3.36,0-5.05,1-5.05,3.14a2.88,2.88,0,0,0,1.21,2.5,5.82,5.82,0,0,0,3.45.87,6.12,6.12,0,0,0,4-1.38A4.46,4.46,0,0,0,330,87.29Z"/><path class="cls-2" d="M351,110.69a12.27,12.27,0,0,1-8.36-3.59l3.82-6.23a6.32,6.32,0,0,0,4.37,2.08,2.45,2.45,0,0,0,2-1.16,4,4,0,0,0,.85-2.44q0-1.29-11.68-30.76h9l7.36,18.81,7.35-18.81h9l-14,35.59a10.06,10.06,0,0,1-3.85,4.8A10.38,10.38,0,0,1,351,110.69Z"/><path class="cls-2" d="M164.3,22.72,153.69,44.16h-5.22L137.92,22.72v24.7h-8.75V8.18H141l10.1,21.56L161.27,8.18h11.79V47.42H164.3Z"/><path class="cls-2" d="M201.35,33.5V17.22h8.48v30.2h-8.48v-4a9.56,9.56,0,0,1-8.11,4.44,11.82,11.82,0,0,1-8.34-3.12q-3.36-3.12-3.37-9.23V17.22H190V33.67q0,7,5.11,7a6,6,0,0,0,4.38-1.83A7.12,7.12,0,0,0,201.35,33.5Z"/><path class="cls-2" d="M226.21,47.42h-8.42V5.77h8.42V27.16l9.38-10h10.6L234.69,29.4l11.95,18h-10L229,35.86l-2.75,2.86Z"/><path class="cls-2" d="M276.06,47.42h-7.92V43.77a9.92,9.92,0,0,1-8.05,4.1A12,12,0,0,1,252,45.09a9.24,9.24,0,0,1-3.25-7.41,7.81,7.81,0,0,1,3.37-6.93c2.24-1.54,5.31-2.3,9.2-2.3h6.29v-.17c0-3.22-1.71-4.83-5.11-4.83a13.81,13.81,0,0,0-4.63.87,15.14,15.14,0,0,0-4.13,2.16L250,21a22.56,22.56,0,0,1,13.59-4.32,14,14,0,0,1,9,2.75q3.48,2.75,3.48,8.7Zm-8.48-11.51V34.45h-5.27q-5.06,0-5.06,3.15a2.9,2.9,0,0,0,1.21,2.49,5.84,5.84,0,0,0,3.45.87,6.11,6.11,0,0,0,4-1.37A4.48,4.48,0,0,0,267.58,35.91Z"/><path class="cls-2" d="M311.48,31.14V47.42H303V30.92a9.8,9.8,0,0,0-1.1-5.28A3.89,3.89,0,0,0,298.37,24a6,6,0,0,0-4.32,1.82,7.11,7.11,0,0,0-1.88,5.36V47.42h-8.42V17.22h8.42v3.42a10.43,10.43,0,0,1,8-3.92,8.65,8.65,0,0,1,5.19,1.68,11,11,0,0,1,3.51,4.1,11.83,11.83,0,0,1,4.68-4.27,12.86,12.86,0,0,1,5.93-1.51A11.75,11.75,0,0,1,328,19.89q3.25,3.16,3.26,9.17V47.42h-8.48V30.92q0-7-5.1-7a6,6,0,0,0-4.38,1.82A7.18,7.18,0,0,0,311.48,31.14Z"/><path class="cls-2" d="M356.32,16.72a12.86,12.86,0,0,1,9.6,4.29A15.33,15.33,0,0,1,370,32a16,16,0,0,1-4.21,11.28,12.77,12.77,0,0,1-9.57,4.55,10.92,10.92,0,0,1-8.9-4.44v4h-8.42V5.77h8.42V20.59A11.52,11.52,0,0,1,356.32,16.72Zm-9.09,15.63a8.72,8.72,0,0,0,2,6,6.35,6.35,0,0,0,5,2.33,6.77,6.77,0,0,0,5.1-2.33,8.36,8.36,0,0,0,2.19-6,9,9,0,0,0-2.13-6.11,6.53,6.53,0,0,0-5.11-2.47,6.3,6.3,0,0,0-5,2.44A9.18,9.18,0,0,0,347.23,32.35Z"/><path class="cls-2" d="M402,47.42H394V43.77a9.92,9.92,0,0,1-8.05,4.1,12,12,0,0,1-8.06-2.78,9.24,9.24,0,0,1-3.25-7.41A7.83,7.83,0,0,1,378,30.75c2.25-1.54,5.32-2.3,9.21-2.3h6.29v-.17c0-3.22-1.71-4.83-5.11-4.83a13.77,13.77,0,0,0-4.63.87,15,15,0,0,0-4.13,2.16L375.91,21a22.55,22.55,0,0,1,13.58-4.32,14.05,14.05,0,0,1,9,2.75q3.48,2.75,3.48,8.7Zm-8.48-11.51V34.45H388.2c-3.36,0-5.05,1-5.05,3.15a2.87,2.87,0,0,0,1.21,2.49,5.82,5.82,0,0,0,3.45.87,6.11,6.11,0,0,0,4-1.37A4.48,4.48,0,0,0,393.48,35.91Z"/></g></g></svg>