<svg xmlns="http://www.w3.org/2000/svg" viewBox="0 0 468.37 284.73"><defs><style>.cls-1{fill:#fafafb;}.cls-2{fill:#d32127;}</style></defs><g id="Layer_2" data-name="Layer 2"><g id="Layer_1-2" data-name="Layer 1"><path class="cls-1" d="M200.87,71.69c.08,1.32.22,2.65.22,4q0,60,.07,119.91c0,3.58-.46,5.11-4.72,5.1q-95.43-.24-190.86,0c-4,0-4.86-1.16-4.86-5Q.9,100.25.7,4.83C.69.65,2.1,0,5.79,0q94.94.15,189.86,0c4.19,0,5.79.69,5.58,5.36-.49,10.8-.31,21.63-.4,32.44l.14-.14c-1.32,1-2.71,1.88-3.95,3q-59.21,51-118.38,102c-11.42,9.83-22.82,19.67-34.54,29.78a7.53,7.53,0,0,0,1.76.67c11.33,0,22.66,0,34,.08,2.26,0,3.71-1.12,5.23-2.43q48.57-41.87,97.2-83.69c6.1-5.22,11.6-11.21,18.69-15.22Zm-61-26.81c-2.37-2.78-4.43-4.74-5.94-7.06-2-3.16-3.6-1.47-5.41.07s-3.5,2.61-1,5.35c6.62,7.23,13.06,14.65,19.21,22.28,2.51,3.12,3.64,1,5.37-.42,1.93-1.54,3.44-2.59.88-5.29-2.29-2.41-6-4.5-4.9-9.33,2.81,1.57,5.74,2.63,7.9,4.55,4,3.56,6.54,1.46,9.49-1.35,1.87-1.77,1.41-2.5-.51-3.51-5.13-2.71-10.17-5.59-15.32-8.25a4.94,4.94,0,0,1-3-4.08c-.64-4.22-1.68-8.37-2.53-12.4C132.32,29.63,140.63,37.91,139.89,44.88ZM80.08,121.42c-1.64-7.79-7.71-14.36-15.46-19.49-4.08-2.71-8.44-2.17-12.42,1-4.14,3.27-5.83,7.58-4,12.32,3.15,8.09,8.55,14.66,16.53,18.39C71.71,136.88,80,131,80.08,121.42ZM121.29,88c0-7-10.12-19.68-17.72-22.45-4.57-1.66-8.06,0-11.34,2.89a9.86,9.86,0,0,0-3,11.32A32.94,32.94,0,0,0,105.7,98.24C112.46,101.59,121.23,95.47,121.29,88ZM51.05,129.41c0-3.9-3.11-8.6-7.11-10.68s-7.72-.92-11,1.69c-2.35,1.84-4.45,4-6.83,5.78-2,1.52-2.31,2.6-.46,4.66C32,138,38.31,145.29,44.42,152.7c2.08,2.51,3.25,2.47,5.8.43,3.1-2.49,2.9-4.14.23-6.52-1.47-1.31-2.54-3.08-4-4.46-1.82-1.76-1.91-3.06.22-4.74C49.22,135.42,51.19,132.93,51.05,129.41Zm79-78c-4.66-5-8.72-6.1-13.3-3.68-5.29,2.81-8.17,8.14-6.35,13.19a34.87,34.87,0,0,0,16,19c4.47,2.52,9.43,1,13.31-3.51a10.55,10.55,0,0,0,.73-12.91c-.57-.81-1.26-2.75-2.46-1.23-1.7,2.15-7,2.79-3.62,7.45.83,1.13.49,2.18-.48,3.1a2.2,2.2,0,0,1-3.14,0A48.36,48.36,0,0,1,118,58.4a2.56,2.56,0,0,1,.17-3.25c.75-.78,1.82-1.37,2.66-.67C125.75,58.5,127,52.87,130,51.44Zm-28.77,53.88a9,9,0,0,0-.28-2.47c-.87-2.08-1.06-6-3.87-5-2,.72-7,2.43-3.88,7.12a2.19,2.19,0,0,1-.68,3.41c-1.53.93-2.94.14-4.09-.87A64.28,64.28,0,0,1,78,95.56c-1-1.48-2.33-3.22-.89-5,1.57-1.92,3-.34,4.74.37,3.47,1.45,4.67-2.26,6.46-3.89,1.36-1.24-1.08-2.32-2.12-3.07-4.19-3-8.36-2.62-12.39.41-4.43,3.32-6.2,7.9-4.26,12.69A36,36,0,0,0,84.7,115C91.59,119.09,101.1,113.29,101.24,105.32Z"/><path class="cls-1" d="M200.83,37.8c4.27,1.39,6.91,5,10.11,7.73q62.67,53.82,125.11,107.9c2.65,2.3,4.07,2,6.5-.06q43.18-37.43,86.57-74.64c2.37-2,3.11-3.49.47-5.67a31.28,31.28,0,0,1-2.85-3.26l41.63-8.37c-4.68,13.78-9.07,26.73-13.54,39.9-5.95-5.83-6-5.85-11.91-.74q-40.67,35-81.27,70.11a10.44,10.44,0,0,1-7.61,2.7c-9.83-.14-19.66-.2-29.48,0a11,11,0,0,1-8-3q-55.55-48-111.21-95.79c-1.34-1.16-2.36-2.89-4.46-2.92l.09.09q0-17.06,0-34.12Z"/><path class="cls-2" d="M403.2,86.22c-1.47-1.6-2.46-2.33-3-3.31-1.63-3-3.09-2.31-5.28-.4q-23.58,20.56-47.35,40.9c-4.54,3.91-9.26,7.62-13.67,11.67-2.18,2-3.68,2.07-5.87.06-4.66-4.26-9.39-8.47-14.38-12.34-3.75-2.91-.35-4.37,1.06-5.6,12.61-10.94,25.4-21.67,38.08-32.53,8.36-7.16,16.5-14.6,25-21.57,2.62-2.15,2.24-3.23.3-5.33-.69-.75-2.65-1.28-1.79-3.09.78-1.65,2.37-1.54,3.84-1.81,9.37-1.67,18.77-3.17,28-5.67,1.42-.38,3-.27,4.45-.51,3.22-.52,3.93,1.17,3.05,3.73C411.65,62.1,407.55,73.74,403.2,86.22Z"/><path class="cls-2" d="M314.85,43.19c12.28-2.31,24.7-4.54,37.06-7,3.11-.63,2.54,1.09,2.1,2.62-1.46,5.14-2.8,10.35-4.72,15.33-2,5.28-3.91,10.6-5.42,16.05-1.29,4.62-2.24,5.09-5.66,1.76-2-2-3-1.24-4.79.3-11.1,9.68-22.47,19-33.44,28.86-3.86,3.45-6.37,5.16-10.8.42a77.92,77.92,0,0,0-10.39-8.81c-3.59-2.68-3.8-4.86-.17-7.83,8.89-7.27,17.59-14.77,26.32-22.24,3.2-2.74,6-5.88,9.6-8.22s5.29-4.86,1.36-8.49A2.35,2.35,0,0,1,314.85,43.19Z"/><path class="cls-1" d="M98.05,282a4.29,4.29,0,0,1-.81.39C86,283.67,86,283.67,85.94,272.27a82.56,82.56,0,0,0-.29-8.48c-.25-2.3-.85-4.62-3.11-6a10.42,10.42,0,0,0-8.69-.88c-2.16.76-.88,3.84-.93,5.86-.16,5.49-.18,11,0,16.48.09,2.59-.64,3.39-3.31,3.44-8.3.16-8.3.29-8.3-8,0-16.48.08-33-.06-49.46,0-3.17.67-4.52,4.12-4.33,5.64.32,11.31,0,17,.34,7,.37,12.53,3.06,14.73,10.39,2.44,8.14.59,14.63-6,20.27C101.27,260.28,94.55,272.28,98.05,282ZM72.86,239a43.71,43.71,0,0,1,0,5c-.33,2.89.84,3.8,3.67,3.57a18.63,18.63,0,0,0,5.86-.94c3.67-1.53,5.28-6,4-10.65s-4.9-6.52-11.27-5.32c-4.38.83-1.29,4.59-2.15,6.86A4.61,4.61,0,0,0,72.86,239Z"/><path class="cls-1" d="M337.29,252.14a12.4,12.4,0,0,1,5.74,10.2c.32,6,.48,11.94.9,17.89.16,2.17-.77,2.34-2.54,2.47-8.33.59-9,0-9.14-8.62-.06-3.65,0-7.32-.4-10.95-.53-5.11-7.39-8.67-11.81-6.34-1.62.85-.93,2.33-1,3.52-.07,6.15-.17,12.31,0,18.45.1,2.9-.45,4.41-3.74,3.94a33.39,33.39,0,0,0-5.48,0c-2.22,0-2.42-1.41-2.41-3.11.14-17.6.49-35.19.24-52.78-.07-5,1.43-6.23,6.08-5.8s9.64,0,14.45.24c7.16.36,13.2,3,15.22,10.47C345.54,239.33,344.78,246.56,337.29,252.14Zm-13.56-21.53c-3.77-.92-5.14.69-4.73,4.68.32,3.11.05,6.29.07,9.44,0,1.14-.15,2.57,1.48,2.65,3.62.17,7.42.69,10.31-2.24s2.66-6.79,1.59-10.27C331.22,230.9,327.67,230.27,323.73,230.61Z"/><path class="cls-1" d="M162.86,251.37a109.21,109.21,0,0,1-2,17.75c-1.95,8.7-10.56,16.68-20,15.49a17.81,17.81,0,0,1-14-9.55c-4.4-8.06-4.45-17-4.34-25.74a48.54,48.54,0,0,1,2.45-16.19c3-8.4,9.45-13.17,18-13.1s14,4.22,17.15,12.65C162.33,238.86,162.36,245.37,162.86,251.37ZM151,249.43a44.66,44.66,0,0,0-1.34-12.62c-.95-3.47-2.58-6.71-6.77-6.95s-6.22,2.74-7.13,6.31a63.24,63.24,0,0,0,.31,32.38c.85,3.2,3,5.83,6.61,5.69s5.42-2.61,6.48-5.93C150.94,262.85,151,257.24,151,249.43Z"/><path class="cls-1" d="M250,252c0-9,.12-18-.06-27-.06-3,.78-4.07,3.9-4,8.15.2,16.33.32,24.47,0,4.69-.21,3.57,2.75,3.53,5.18s1.27,5.63-3.46,5.24c-3.8-.32-7.65-.06-11.48-.06a10.33,10.33,0,0,0-2.49,0c-6.31,1.62-1.65,6.55-2.76,9.79-.6,1.73-1.32,4.85,2.88,4.58,4.47-.29,9,.12,13.48-.12,4.29-.23,2.88,2.83,2.77,4.71s1.91,5.43-2.77,5.28c-4.49-.14-9,.1-13.48-.08-2.46-.09-3,.83-3.09,3.15-.69,14.39-.76,14.39,13.35,14.38h2.5c5.65,0,7.42,3.14,4.93,8.33-.72,1.5-1.74,1.27-2.82,1.28-8.83,0-17.66-.08-26.48.06-2.58,0-3-1-3-3.25C250.07,270.29,250,261.13,250,252Z"/><path class="cls-1" d="M.1,251.55c0-8.83.11-17.66-.06-26.48-.06-2.91.54-4.28,3.8-4.07,6.3.41,12.64-.43,18.94.59,9,1.45,14.54,8.77,14.08,18.79s-6.11,16.26-15.2,17.35c-3.3.4-7.78-1.76-9.63,1.45-1.45,2.52-.4,6.49-.44,9.82,0,2.16,0,4.33,0,6.49,0,6.83-3.33,9.16-10,7.16C-.69,282,.16,280.31.15,279,.07,269.87.11,260.71.1,251.55Zm16-20.9c-4.36-1.48-4.69,1.36-4.5,5,.18,3.46,0,6.93.06,10.4,0,1.08-.35,2.53,1.45,2.55,3.58,0,7.48.86,10.2-2.36,2.85-3.38,2.51-7.47,1.22-11.26C23.27,231.44,20.22,230.17,16.05,230.65Z"/><path class="cls-1" d="M188.91,251.74c0-9,.15-18-.07-26.92-.08-3.15.91-4,3.93-3.82,6.3.36,12.63-.41,18.91.6,8.95,1.45,14.36,8.82,13.83,18.87s-6,16.27-15.19,17.24c-3.34.36-7.85-1.57-9.73,1.35-1.53,2.37-.43,6.44-.47,9.76,0,2.33,0,4.66,0,7,0,6.89,0,6.65-6.67,6.95-3.71.17-4.77-.82-4.64-4.6C189.13,269.36,188.91,260.54,188.91,251.74Zm15.73-21.13c-4-1.28-4.88,1-4.57,5,.26,3.46,0,7,.06,10.45,0,1.13-.21,2.56,1.5,2.57,3.6,0,7.54.89,10.28-2.3,2.86-3.34,2.68-7.33,1.29-11.25C211.88,231.34,208.88,230.31,204.64,230.61Z"/><path class="cls-1" d="M446.47,248.11c2.84-8.08,5.46-15.55,8.1-23,.53-1.48.32-3.77,2.39-3.92a37,37,0,0,1,9.92.27c1.4.28-.06,2.33-.49,3.38-4.11,10.12-8.11,20.3-12.63,30.25-3.15,6.93-1.33,14.07-1.94,21.1-.18,2.09,1,5.41-.7,6-2.82,1-6.21.38-9.35.36-.72,0-1.08-.63-1.07-1.38a8.25,8.25,0,0,1,0-1c3.12-20.22-7.56-36.84-14.4-54.42-1.56-4-1.24-4.56,3.12-4.91,6-.48,9,1.47,10.48,7.3C441.54,234.69,444.07,241,446.47,248.11Z"/><path class="cls-1" d="M379.2,256.54c0-7.15-.16-14.3.08-21.44.11-3.15-.92-4.24-3.93-3.8a21.29,21.29,0,0,1-3,0c-5.72,0-7.93-3.22-6.1-8.68.49-1.47,1.49-1.58,2.69-1.58,10.64,0,21.28,0,31.91,0,4.49,0,2.66,3.35,2.78,5.4s1.33,4.89-2.77,4.93c-3.25,0-7.93-1.6-9.4.72-1.67,2.63-.68,7-.7,10.65,0,12-.14,23.93.07,35.9.06,3.34-1,4.14-4.17,4.08-7.47-.14-7.47,0-7.47-7.24Z"/><path class="cls-1" d="M244.68,155.09c-3.7,2.36-3.78,6.21-4.78,9.57a1.38,1.38,0,0,0,.58,1.69c1.07.71,3.72-1,3.26,1.6-.32,1.84-2.66.42-3.9,1.07-1.7.88-1.58,2.77-1.89,4.29-1.39,6.65-2.75,13.31-5.14,19.67-1.54,4.08-3.68,7.88-8.54,8.92-2.82.61-5.35.18-7-2.46a3.07,3.07,0,0,1,.29-3.72,2.87,2.87,0,0,1,3.16-.91,2.68,2.68,0,0,1,2,2.49c.11.76-1.36,2,.42,2.28,1.53.21,1.88-1.29,2.15-2.32,1.41-5.44,2.7-10.91,4-16.38.69-2.9,1.32-5.81,2-8.72a5.78,5.78,0,0,0,.46-1.92c-.53-3.64,4.69-13.68,8.38-15.89,2.73-1.64,5.62-2.26,8.45-.41,1.57,1,2.63,2.6,1.69,4.68-.6,1.32-1.62,2.22-3.14,1.85-2-.48-2.53-1.9-2.21-3.82A5.77,5.77,0,0,0,244.68,155.09Z"/><path class="cls-1" d="M244.72,182.58A17.72,17.72,0,0,1,256,166.51c7.85-2.77,13.81,2,12.79,10.22-.93,7.52-8.36,14.9-15,15C247.5,191.73,244.65,188.87,244.72,182.58ZM262,173.25c0-2.36.55-4.55-1.65-5.29-2-.69-3.48.9-4.45,2.46-3,4.76-4.05,10.15-4.63,15.61-.15,1.35.24,3.14,2.09,3.55,1.68.37,2.84-.62,3.73-1.93C260.14,183.14,261.14,177.94,262,173.25Z"/><path class="cls-1" d="M283.85,169.94c1.19-1.1,2.19-2.13,3.3-3,1.56-1.28,3.31-1.8,4.88-.15,1.43,1.5,1.24,3.42.34,5.07-1,1.91-2.84,2.59-4.52,1-2.09-2-2.78-.3-3.65,1a47.37,47.37,0,0,0-5.57,13.72c-.72,2.72-2.2,3.55-5,3.4-2.56-.14-3.12-.74-2.35-3.23,1.41-4.57,2.35-9.29,3.78-13.86.83-2.65,1.25-4.79-2.13-6.4,3.13-.47,6.26-1.19,9.41-1.36C285.92,165.93,282.63,168.43,283.85,169.94Z"/><path class="cls-1" d="M58.06,107.65a11,11,0,0,1,2.11,1.12,54,54,0,0,1,11.62,13.5c.77,1.28,1.31,3-.15,4.08s-2.84.63-4.1-.46a53.06,53.06,0,0,1-11.65-13.47C54.46,109.93,55.16,108.4,58.06,107.65Z"/><path class="cls-1" d="M99.05,72.42a7.26,7.26,0,0,1,2,.9,50.94,50.94,0,0,1,12.17,14.33,2.51,2.51,0,0,1-.72,3.49,2.35,2.35,0,0,1-3.2-.1A46.45,46.45,0,0,1,96.73,76.45C95.6,74.28,96.53,73,99.05,72.42Z"/><path class="cls-1" d="M38.54,125.53c2.27.88,4.18,2.4,4.36,5.17.12,1.77-1.38,3.78-2.74,3.18a9,9,0,0,1-5.2-6.14C34.67,126.32,36.71,125.63,38.54,125.53Z"/></g></g></svg>